<svg width="34" height="34" viewBox="0 0 34 34" fill="none" xmlns="http://www.w3.org/2000/svg">
<rect width="34" height="34" rx="10" fill="white"/>
<g clip-path="url(#clip0_1_1381)">
<path d="M17 7.625C15.1458 7.625 13.3332 8.17483 11.7915 9.20497C10.2498 10.2351 9.04821 11.6993 8.33863 13.4123C7.62906 15.1254 7.44341 17.0104 7.80514 18.829C8.16688 20.6475 9.05976 22.318 10.3709 23.6291C11.682 24.9402 13.3525 25.8331 15.171 26.1949C16.9896 26.5566 18.8746 26.3709 20.5877 25.6614C22.3007 24.9518 23.7649 23.7502 24.795 22.2085C25.8252 20.6668 26.375 18.8542 26.375 17C26.3722 14.5145 25.3836 12.1315 23.626 10.374C21.8685 8.61644 19.4855 7.62781 17 7.625ZM17 25.75C15.2694 25.75 13.5777 25.2368 12.1388 24.2754C10.6998 23.3139 9.57833 21.9473 8.91606 20.3485C8.25379 18.7496 8.08051 16.9903 8.41813 15.293C8.75575 13.5956 9.58911 12.0365 10.8128 10.8128C12.0365 9.58911 13.5956 8.75575 15.293 8.41813C16.9903 8.08051 18.7496 8.25379 20.3485 8.91605C21.9473 9.57832 23.3139 10.6998 24.2754 12.1388C25.2368 13.5777 25.75 15.2694 25.75 17C25.7474 19.3198 24.8247 21.5439 23.1843 23.1843C21.5439 24.8247 19.3199 25.7474 17 25.75Z" fill="#78C081"/>
<path d="M17 10.125C15.6403 10.125 14.311 10.5282 13.1805 11.2836C12.0499 12.0391 11.1687 13.1128 10.6483 14.3691C10.128 15.6253 9.99183 17.0076 10.2571 18.3412C10.5224 19.6749 11.1772 20.8999 12.1386 21.8614C13.1001 22.8228 14.3251 23.4776 15.6588 23.7429C16.9924 24.0082 18.3747 23.872 19.631 23.3517C20.8872 22.8313 21.9609 21.9501 22.7164 20.8195C23.4718 19.689 23.875 18.3597 23.875 17C23.873 15.1773 23.148 13.4298 21.8591 12.1409C20.5702 10.852 18.8227 10.1271 17 10.125ZM17 23.25C15.7639 23.25 14.5555 22.8834 13.5277 22.1967C12.4999 21.5099 11.6988 20.5338 11.2258 19.3918C10.7527 18.2497 10.6289 16.9931 10.8701 15.7807C11.1113 14.5683 11.7065 13.4547 12.5806 12.5806C13.4547 11.7065 14.5683 11.1112 15.7807 10.8701C16.9931 10.6289 18.2497 10.7527 19.3918 11.2258C20.5338 11.6988 21.5099 12.4999 22.1967 13.5277C22.8834 14.5555 23.25 15.7639 23.25 17C23.2481 18.657 22.589 20.2456 21.4173 21.4173C20.2456 22.589 18.657 23.2481 17 23.25Z" fill="#78C081"/>
<path d="M18.4804 15.8536C18.4244 15.7812 18.3632 15.713 18.2973 15.6495C18.4029 15.3404 18.5486 15.0465 18.7308 14.7753C18.8292 14.6328 18.9186 14.5077 18.9989 14.3954C19.3776 13.8651 19.6062 13.545 19.6062 12.9961C19.6062 12.2039 18.6702 11.349 17.1582 11.349C16.7308 11.3269 16.304 11.4026 15.9103 11.5704C15.5166 11.7382 15.1664 11.9936 14.8863 12.3171C14.6546 12.5708 14.4968 12.8831 14.4302 13.2202C14.3636 13.5573 14.3907 13.9061 14.5085 14.2289L15.266 16.2887C15.2313 16.3741 15.203 16.4621 15.1814 16.5517C14.861 16.6148 14.5336 16.6356 14.2077 16.6136C14.035 16.5995 13.882 16.5847 13.7445 16.5713C13.0962 16.5084 12.7046 16.4703 12.2295 16.7449C12.0344 16.8756 11.8736 17.0514 11.7607 17.2573C11.6479 17.4633 11.5863 17.6934 11.5812 17.9282C11.5435 18.547 11.6993 19.1622 12.0269 19.6886C12.2215 20.0698 12.5005 20.4015 12.8427 20.6586C13.1848 20.9157 13.5811 21.0914 14.0014 21.1722C14.1349 21.1975 14.2705 21.2104 14.4064 21.2106C14.6809 21.2141 14.9527 21.1559 15.2018 21.0404C15.4509 20.925 15.6709 20.7551 15.8457 20.5434L17.252 18.8562C17.3433 18.8441 17.4335 18.8252 17.522 18.7998C17.737 19.0451 17.9183 19.318 18.0612 19.6113C18.1355 19.7678 18.1992 19.9078 18.2562 20.0335C18.5262 20.6266 18.689 20.9846 19.1643 21.2591C19.3454 21.3599 19.5499 21.4111 19.7571 21.4077C20.4225 21.4077 21.2465 20.9469 21.8149 19.9627C22.0477 19.6036 22.1955 19.1961 22.247 18.7712C22.2986 18.3463 22.2525 17.9153 22.1123 17.5109C22.0085 17.1834 21.8169 16.8906 21.5583 16.6644C21.2997 16.4382 20.984 16.2873 20.6456 16.228L18.4804 15.8536ZM17 18.2501C16.7527 18.2501 16.5111 18.1767 16.3055 18.0394C16.0999 17.902 15.9397 17.7068 15.8451 17.4784C15.7505 17.25 15.7258 16.9987 15.774 16.7562C15.8222 16.5137 15.9413 16.291 16.1161 16.1162C16.2909 15.9414 16.5136 15.8223 16.7561 15.7741C16.9986 15.7258 17.2499 15.7506 17.4783 15.8452C17.7067 15.9398 17.902 16.1 18.0393 16.3056C18.1767 16.5112 18.25 16.7528 18.25 17.0001C18.2496 17.3315 18.1178 17.6492 17.8834 17.8835C17.6491 18.1179 17.3314 18.2497 17 18.2501ZM15.3606 12.7241C15.5823 12.4692 15.8598 12.2689 16.1716 12.1388C16.4834 12.0087 16.821 11.9523 17.1582 11.9741C18.3321 11.9741 18.9812 12.5785 18.9812 12.9963C18.9812 13.33 18.8713 13.4987 18.4903 14.0322C18.4083 14.1469 18.3171 14.2746 18.2166 14.4204C18.033 14.6918 17.8809 14.9833 17.7631 15.2891C17.4221 15.1358 17.0429 15.0885 16.6746 15.1535C16.3064 15.2185 15.9662 15.3927 15.6983 15.6535L15.0952 14.0132C15.0174 13.7946 15.0011 13.5589 15.0479 13.3316C15.0946 13.1043 15.2028 12.8942 15.3606 12.7241ZM15.3656 20.1432C15.2151 20.3198 15.0192 20.4518 14.799 20.5249C14.5788 20.598 14.3428 20.6094 14.1167 20.5578C13.785 20.4933 13.4727 20.3531 13.2041 20.1481C12.9356 19.9431 12.7179 19.6789 12.5682 19.376C12.3094 18.9587 12.1823 18.4731 12.2037 17.9826C12.2039 17.8485 12.2344 17.7162 12.293 17.5956C12.3516 17.4751 12.4367 17.3693 12.542 17.2863C12.8308 17.1191 13.0321 17.1302 13.6842 17.1934C13.8246 17.207 13.9809 17.2222 14.1574 17.2364C14.4839 17.2599 14.8119 17.2461 15.1352 17.1951C15.1748 17.5666 15.3243 17.9179 15.5646 18.204C15.8048 18.4901 16.125 18.6981 16.4841 18.8013L15.3656 20.1432ZM21.5227 17.7182C21.6326 18.0377 21.6673 18.3783 21.6241 18.7134C21.5809 19.0485 21.4609 19.3691 21.2735 19.6503C20.6868 20.6665 19.8382 20.9266 19.4768 20.7178C19.1878 20.551 19.0967 20.3716 18.8252 19.7748C18.7668 19.6463 18.7018 19.5035 18.6259 19.3435C18.4823 19.0486 18.3056 18.7709 18.0992 18.5159C18.4033 18.2981 18.6346 17.9935 18.7627 17.642C18.8908 17.2905 18.9098 16.9085 18.8171 16.5461L20.539 16.8438C20.7672 16.8858 20.9795 16.9895 21.1529 17.1436C21.3264 17.2977 21.4542 17.4964 21.5227 17.7181V17.7182Z" fill="#78C081"/>
<path d="M17 9.5C17.1726 9.5 17.3125 9.36009 17.3125 9.1875C17.3125 9.01491 17.1726 8.875 17 8.875C16.8274 8.875 16.6875 9.01491 16.6875 9.1875C16.6875 9.36009 16.8274 9.5 17 9.5Z" fill="#78C081"/>
<path d="M17 25.125C17.1726 25.125 17.3125 24.9851 17.3125 24.8125C17.3125 24.6399 17.1726 24.5 17 24.5C16.8274 24.5 16.6875 24.6399 16.6875 24.8125C16.6875 24.9851 16.8274 25.125 17 25.125Z" fill="#78C081"/>
<path d="M9.1875 17.3125C9.36009 17.3125 9.5 17.1726 9.5 17C9.5 16.8274 9.36009 16.6875 9.1875 16.6875C9.01491 16.6875 8.875 16.8274 8.875 17C8.875 17.1726 9.01491 17.3125 9.1875 17.3125Z" fill="#78C081"/>
<path d="M24.8125 17.3125C24.9851 17.3125 25.125 17.1726 25.125 17C25.125 16.8274 24.9851 16.6875 24.8125 16.6875C24.6399 16.6875 24.5 16.8274 24.5 17C24.5 17.1726 24.6399 17.3125 24.8125 17.3125Z" fill="#78C081"/>
</g>
<defs>
<clipPath id="clip0_1_1381">
<rect width="20" height="20" fill="white" transform="translate(7 7)"/>
</clipPath>
</defs>
</svg>
