<svg width="34" height="34" viewBox="0 0 34 34" fill="none" xmlns="http://www.w3.org/2000/svg">
<rect width="34" height="34" rx="10" fill="white"/>
<path d="M19.5642 7.90918C21.0876 7.90918 26.091 16.2048 26.091 19.3924C26.091 23.0919 23.1688 26.091 19.5642 26.091C18.7141 26.091 17.8859 25.9239 17.1141 25.6029C16.8755 25.5037 16.7605 25.2247 16.8572 24.9798C16.9539 24.7349 17.2257 24.6168 17.4643 24.716C18.1253 24.9909 18.8347 25.1341 19.5642 25.1341C22.6539 25.1341 25.1586 22.5248 25.1586 19.3924C25.0551 16.0573 20.4686 9.38859 19.5278 8.87329C18.5603 9.42082 15.571 14.4165 14.8195 16.2472C14.7161 16.4892 14.4411 16.5993 14.2053 16.4932C13.9695 16.387 13.8622 16.1048 13.9656 15.8628C14.8195 13.6379 18.2352 8.02704 19.5642 7.90918ZM17.2332 22.7417C17.4907 22.7417 17.6994 22.9559 17.6994 23.2202C17.6994 23.4656 17.517 23.6987 17.2332 23.6987C16.5166 23.6987 15.9635 24.6556 14.9034 24.6556C13.8433 24.6556 13.3047 23.6987 12.5712 23.6987C11.8377 23.6986 11.3132 24.6556 10.2402 24.6556C9.49458 24.6556 8.76355 24.2805 8.04908 23.5619C7.86519 23.377 7.86219 23.074 8.0424 22.8853C8.22261 22.6966 8.51778 22.6935 8.70168 22.8784C9.25588 23.4358 9.76808 23.6987 10.2402 23.6987C10.8939 23.6987 11.4916 22.7416 12.5712 22.7417C13.6507 22.7418 14.201 23.6987 14.9009 23.6987C15.6008 23.6987 16.0897 22.7418 17.2332 22.7417ZM13.2332 19.8278C14.3559 19.8278 14.8976 20.7848 15.5687 20.7848C16.038 20.7895 16.548 20.5278 17.1011 19.9662C17.2842 19.7803 17.5793 19.7819 17.7604 19.9698C17.9415 20.1577 17.9399 20.4606 17.7569 20.6465C17.0413 21.3729 16.3091 21.7417 15.5597 21.7417C14.4807 21.7417 13.9724 20.7848 13.2332 20.7848C12.494 20.7848 11.9716 21.7418 10.9034 21.7417C9.83526 21.7416 9.30785 20.7848 8.57118 20.7848C8.31371 20.7848 8.10498 20.5706 8.10498 20.3063C8.10498 20.0421 8.31371 19.8278 8.57118 19.8278C9.68715 19.8279 10.2175 20.7847 10.9009 20.7848C11.5844 20.7848 12.1105 19.8279 13.2332 19.8278ZM17.2332 17.0001C17.4907 17.0001 17.6994 17.2143 17.6994 17.4786C17.6994 17.7239 17.5026 17.957 17.2332 17.957C16.4594 17.957 15.9947 18.911 14.9034 18.914C13.8122 18.9169 13.3152 17.957 12.5712 17.957C11.8272 17.957 11.3343 18.914 10.2402 18.914C9.49455 18.914 8.76355 18.5389 8.04908 17.8203C7.86519 17.6353 7.86219 17.3324 8.0424 17.1437C8.22261 16.9549 8.51778 16.9519 8.70168 17.1368C9.25588 17.6942 9.76808 17.957 10.2402 17.957C10.9165 17.9538 11.4707 17.0001 12.5712 17.0001C13.6717 17.0001 14.2053 17.9589 14.9009 17.957C15.5966 17.9551 16.1164 17.0001 17.2332 17.0001Z" fill="#78C081"/>
</svg>
