<svg width="34" height="34" viewBox="0 0 34 34" fill="none" xmlns="http://www.w3.org/2000/svg">
<rect width="34" height="34" rx="10" fill="white"/>
<g clip-path="url(#clip0_1_1391)">
<path d="M27.4078 18.7292V18.6974L27.2953 18.5793L23.7306 13.8327V8.38588L23.4213 8.06104L10.7806 8.06104L10.4712 8.38588V13.8329L6.90702 18.5788L6.79396 18.6975V18.7293L6.76855 18.7631L6.79396 18.784V20.487C6.79436 20.86 6.93567 21.2177 7.18689 21.4815C7.43812 21.7453 7.77874 21.8936 8.13402 21.8941H26.0678C26.4231 21.8936 26.7637 21.7452 27.0149 21.4814C27.2661 21.2177 27.4074 20.86 27.4078 20.487V18.784L27.4332 18.763L27.4078 18.7292ZM11.09 8.71072L23.1119 8.71072V13.6216L11.09 13.6216V8.71072ZM10.93 14.2713L23.2717 14.2713L26.3519 18.3727H7.84987L10.93 14.2713ZM26.7891 20.4872C26.7889 20.688 26.7129 20.8805 26.5777 21.0225C26.4424 21.1645 26.2591 21.2444 26.0678 21.2446H8.13402C7.94277 21.2444 7.75938 21.1646 7.62414 21.0226C7.4889 20.8806 7.41286 20.688 7.41271 20.4872V19.0224H26.7891V20.4872Z" fill="#78C081"/>
<path d="M13.6438 10.3572L13.3345 10.682V12.5836L13.6438 12.9085H20.559L20.8684 12.5836V10.682L20.559 10.3572H13.6438ZM20.2497 12.2587H13.9532V11.0069H20.2497V12.2587Z" fill="#78C081"/>
<path d="M13.8233 23.7167C13.838 23.5116 14.0237 23.2658 14.3185 22.9357L13.867 22.4913C13.069 23.3849 12.936 23.8997 13.7803 25.0091C14.0366 25.3458 14.1414 25.651 14.0915 25.916C14.0218 26.2869 13.6651 26.4987 13.6615 26.5008L13.8099 26.7863L13.9564 27.0724C13.9812 27.0583 14.5665 26.7211 14.697 26.051C14.7873 25.5872 14.6416 25.1003 14.2638 24.604C13.9408 24.1791 13.8091 23.914 13.8233 23.7167Z" fill="#78C081"/>
<path d="M16.9615 23.7167C16.9762 23.5115 17.1619 23.2657 17.4566 22.9357L17.0052 22.4913C16.2072 23.3849 16.0742 23.8997 16.9185 25.0091C17.1748 25.3458 17.2795 25.651 17.2298 25.9161C17.1601 26.2869 16.8034 26.4988 16.7998 26.5009L16.9481 26.7864L17.0947 27.0725C17.1195 27.0584 17.7048 26.7212 17.8353 26.0511C17.9257 25.5873 17.7799 25.1003 17.4021 24.6041C17.0789 24.1791 16.9472 23.914 16.9615 23.7167Z" fill="#78C081"/>
<path d="M20.0991 23.7167C20.1139 23.5115 20.2996 23.2657 20.5943 22.9357L20.1429 22.4913C19.3449 23.3849 19.2119 23.8997 20.0562 25.0091C20.3125 25.3458 20.4172 25.651 20.3675 25.9161C20.2978 26.2869 19.9411 26.4988 19.9375 26.5009L20.0858 26.7864L20.2324 27.0725C20.2572 27.0584 20.8425 26.7212 20.973 26.0511C21.0634 25.5873 20.9176 25.1003 20.5398 24.6041C20.2167 24.1791 20.085 23.914 20.0991 23.7167Z" fill="#78C081"/>
<path d="M21 20.141C21 20.4172 20.7761 20.641 20.5 20.641C20.2239 20.641 20 20.4172 20 20.141C20 19.8649 20.2239 19.641 20.5 19.641C20.7761 19.641 21 19.8649 21 20.141Z" fill="#78C081"/>
<path d="M23 20.141C23 20.4172 22.7761 20.641 22.5 20.641C22.2239 20.641 22 20.4172 22 20.141C22 19.8649 22.2239 19.641 22.5 19.641C22.7761 19.641 23 19.8649 23 20.141Z" fill="#78C081"/>
<path d="M25 20.141C25 20.4172 24.7761 20.641 24.5 20.641C24.2239 20.641 24 20.4172 24 20.141C24 19.8649 24.2239 19.641 24.5 19.641C24.7761 19.641 25 19.8649 25 20.141Z" fill="#78C081"/>
</g>
<defs>
<clipPath id="clip0_1_1391">
<rect width="22" height="21" fill="white" transform="translate(6 7)"/>
</clipPath>
</defs>
</svg>
