<svg width="34" height="34" viewBox="0 0 34 34" fill="none" xmlns="http://www.w3.org/2000/svg">
<rect width="34" height="34" rx="10" fill="white"/>
<g clip-path="url(#clip0_1_1376)">
<path d="M26.8265 21.5515L24.7765 20.5265L23.4718 17.1328C23.4565 17.0926 23.433 17.0561 23.4029 17.0255C23.3728 16.9948 23.3367 16.9707 23.2968 16.9546L15.2015 13.7187C15.1449 13.6962 15.083 13.6907 15.0233 13.7029C14.9636 13.7151 14.9088 13.7445 14.8656 13.7874L13.7859 14.8671C13.7435 14.9104 13.7146 14.965 13.7027 15.0243C13.6907 15.0837 13.6963 15.1453 13.7187 15.2015L16.9546 23.2968C16.9707 23.3367 16.9948 23.3728 17.0255 23.4029C17.0561 23.433 17.0926 23.4565 17.1328 23.4718L20.5265 24.7765L21.5515 26.8265C21.5731 26.8717 21.6052 26.9111 21.6452 26.9412C21.6852 26.9714 21.7318 26.9916 21.7812 26.9999C21.7978 27.0015 21.8146 27.0015 21.8312 26.9999C21.9139 26.9996 21.9932 26.9664 22.0515 26.9078L26.9078 22.0515C26.9435 22.017 26.9705 21.9745 26.9865 21.9275C27.0026 21.8805 27.0072 21.8303 27 21.7812C26.9916 21.7318 26.9714 21.6852 26.9412 21.6452C26.9111 21.6052 26.8717 21.5731 26.8265 21.5515ZM14.3734 15.1609L14.5468 14.989L18.5765 19.0187C18.3109 19.395 18.1962 19.8573 18.2551 20.3141C18.314 20.7709 18.5421 21.189 18.8944 21.4857C19.2467 21.7824 19.6974 21.9361 20.1576 21.9165C20.6178 21.8968 21.0538 21.7052 21.3795 21.3795C21.7052 21.0538 21.8968 20.6178 21.9165 20.1576C21.9361 19.6974 21.7824 19.2466 21.4857 18.8944C21.189 18.5421 20.7709 18.314 20.3141 18.2551C19.8573 18.1962 19.395 18.3109 19.0187 18.5765L14.989 14.5468L15.1609 14.3734L22.9375 17.4843L24.164 20.6749L20.675 24.164L17.4843 22.9374L14.3734 15.1609ZM20.0781 18.864C20.3589 18.8644 20.631 18.9622 20.8478 19.1407C21.0647 19.3192 21.2129 19.5673 21.2673 19.8429C21.3217 20.1184 21.2789 20.4043 21.1462 20.6518C21.0135 20.8993 20.7991 21.0932 20.5394 21.2003C20.2798 21.3075 19.9911 21.3213 19.7224 21.2394C19.4538 21.1576 19.2218 20.9851 19.066 20.7514C18.9103 20.5177 18.8403 20.2372 18.8682 19.9577C18.896 19.6783 19.0199 19.4171 19.2187 19.2187C19.4468 18.9913 19.7559 18.8637 20.0781 18.864ZM21.9171 26.1593L21.1359 24.5968L24.5937 21.139L26.1562 21.9203L21.9171 26.1593Z" fill="#78C081"/>
<path d="M12.9765 23.7187C12.9168 23.6622 12.8377 23.6308 12.7555 23.6308C12.6732 23.6308 12.5941 23.6622 12.5344 23.7187L12.1375 24.1156C11.0784 22.6782 10.4941 20.9461 10.4661 19.1609C10.4381 17.3757 10.9678 15.6262 11.9812 14.1562C12.2849 14.3233 12.6345 14.3875 12.9777 14.3391C13.3209 14.2908 13.6391 14.1326 13.8848 13.8881C14.1305 13.6437 14.2903 13.3262 14.3404 12.9832C14.3905 12.6403 14.328 12.2904 14.1625 11.9859C15.6324 10.9724 17.3819 10.4428 19.1672 10.4708C20.9524 10.4988 22.6844 11.0831 24.1219 12.1422L23.7187 12.5343C23.6606 12.5929 23.628 12.6721 23.6281 12.7547C23.6279 12.7958 23.6358 12.8366 23.6513 12.8746C23.6669 12.9127 23.6898 12.9473 23.7187 12.9765L25.0969 14.3437C25.1554 14.4019 25.2346 14.4346 25.3172 14.4346C25.3997 14.4346 25.4789 14.4019 25.5375 14.3437L26.9078 12.9734C26.9369 12.9444 26.9599 12.9099 26.9756 12.872C26.9914 12.834 26.9995 12.7934 26.9995 12.7523C26.9995 12.7112 26.9914 12.6706 26.9756 12.6326C26.9599 12.5947 26.9369 12.5602 26.9078 12.5312L25.5375 11.1609C25.4789 11.1027 25.3997 11.07 25.3172 11.07C25.2346 11.07 25.1554 11.1027 25.0969 11.1609L24.5672 11.6875C23.2617 10.7051 21.7183 10.0879 20.0955 9.89928C18.4726 9.71064 16.8288 9.95733 15.3328 10.614L17.1344 8.81715C17.3386 8.91476 17.5709 8.93685 17.7899 8.87952C18.0089 8.82218 18.2005 8.68912 18.3308 8.50393C18.461 8.31875 18.5214 8.09343 18.5013 7.86793C18.4812 7.64243 18.3819 7.43133 18.221 7.27209C18.0601 7.11286 17.8479 7.01577 17.6222 6.99805C17.3965 6.98034 17.1719 7.04315 16.9881 7.17533C16.8043 7.30751 16.6732 7.50053 16.6182 7.72013C16.5632 7.93974 16.5877 8.17173 16.6875 8.37497L13.6469 11.4203C13.3381 11.2132 12.9671 11.1197 12.5971 11.1558C12.2271 11.1919 11.8811 11.3554 11.6182 11.6182C11.3554 11.8811 11.1919 12.2271 11.1558 12.5971C11.1197 12.9671 11.2132 13.3381 11.4203 13.6468L8.37498 16.6875C8.17096 16.588 7.93829 16.5642 7.71833 16.6201C7.49837 16.676 7.30536 16.8081 7.17359 16.9929C7.04183 17.1777 6.97985 17.4033 6.99866 17.6294C7.01748 17.8556 7.11587 18.0678 7.27636 18.2283C7.43684 18.3888 7.64903 18.4872 7.87521 18.506C8.10139 18.5248 8.32691 18.4628 8.51171 18.331C8.6965 18.1993 8.8286 18.0063 8.88453 17.7863C8.94046 17.5663 8.91659 17.3337 8.81717 17.1297L10.6187 15.3328C9.96138 16.8284 9.71391 18.472 9.90173 20.0948C10.0896 21.7176 10.7059 23.2613 11.6875 24.5672L11.1594 25.0968C11.1012 25.1554 11.0685 25.2346 11.0685 25.3172C11.0685 25.3997 11.1012 25.4789 11.1594 25.5375L12.5297 26.9078C12.588 26.9665 12.6672 26.9996 12.75 27C12.7912 27 12.8321 26.9919 12.8701 26.976C12.9082 26.9602 12.9428 26.937 12.9719 26.9078L14.3437 25.5375C14.4019 25.4789 14.4346 25.3997 14.4346 25.3172C14.4346 25.2346 14.4019 25.1554 14.3437 25.0968L12.9765 23.7187ZM25.3203 11.8203L26.2484 12.7484L25.3203 13.6765L24.3922 12.7484L25.3203 11.8203ZM17.3125 7.7234C17.3589 7.67659 17.4182 7.64462 17.4829 7.63156C17.5475 7.6185 17.6145 7.62493 17.6755 7.65004C17.7365 7.67515 17.7886 7.71781 17.8253 7.7726C17.862 7.82739 17.8816 7.89184 17.8816 7.95778C17.8816 8.02372 17.862 8.08817 17.8253 8.14296C17.7886 8.19775 17.7365 8.24041 17.6755 8.26552C17.6145 8.29063 17.5475 8.29706 17.4829 8.284C17.4182 8.27094 17.3589 8.23897 17.3125 8.19215C17.2817 8.16139 17.2572 8.12485 17.2406 8.08464C17.2239 8.04442 17.2153 8.00131 17.2153 7.95778C17.2153 7.91424 17.2239 7.87114 17.2406 7.83092C17.2572 7.7907 17.2817 7.75417 17.3125 7.7234ZM12.0625 12.0625C12.1532 11.9713 12.2611 11.8989 12.3799 11.8496C12.4987 11.8002 12.626 11.7748 12.7547 11.7748C12.8833 11.7748 13.0107 11.8002 13.1295 11.8496C13.2483 11.8989 13.3561 11.9713 13.4469 12.0625C13.584 12.1994 13.6775 12.374 13.7154 12.5641C13.7533 12.7541 13.734 12.9512 13.6599 13.1303C13.5858 13.3094 13.4603 13.4625 13.2991 13.5702C13.138 13.678 12.9485 13.7355 12.7547 13.7355C12.5608 13.7355 12.3714 13.678 12.2102 13.5702C12.0491 13.4625 11.9235 13.3094 11.8494 13.1303C11.7753 12.9512 11.756 12.7541 11.7939 12.5641C11.8319 12.374 11.9253 12.1994 12.0625 12.0625ZM8.19373 17.7812C8.12994 17.8344 8.04855 17.8618 7.96556 17.8581C7.88257 17.8543 7.80399 17.8197 7.74525 17.761C7.68651 17.7022 7.65186 17.6236 7.64811 17.5406C7.64436 17.4577 7.67178 17.3763 7.72498 17.3125C7.78752 17.251 7.87168 17.2166 7.95936 17.2166C8.04703 17.2166 8.1312 17.251 8.19373 17.3125C8.22454 17.3432 8.24897 17.3798 8.26565 17.42C8.28232 17.4602 8.2909 17.5033 8.2909 17.5468C8.2909 17.5904 8.28232 17.6335 8.26565 17.6737C8.24897 17.7139 8.22454 17.7505 8.19373 17.7812ZM12.7547 26.239L11.8265 25.3109L12.7547 24.3828L13.6828 25.3109L12.7547 26.239Z" fill="#78C081"/>
</g>
<defs>
<clipPath id="clip0_1_1376">
<rect width="20" height="20" fill="white" transform="translate(7 7)"/>
</clipPath>
</defs>
</svg>
