<svg width="34" height="34" viewBox="0 0 34 34" fill="none" xmlns="http://www.w3.org/2000/svg">
<rect width="34" height="34" rx="10" fill="white"/>
<g clip-path="url(#clip0_1_1412)">
<path d="M25 27H9C7.8959 26.9989 7.00109 26.1041 7 25L7 9C7.00109 7.8959 7.8959 7.00109 9 7H25C26.1041 7.00109 26.9989 7.8959 27 9V25C26.9989 26.1041 26.1041 26.9989 25 27V27ZM26.3333 9C26.3333 8.26363 25.7364 7.66668 25 7.66668H9C8.26363 7.66668 7.66668 8.26363 7.66668 9L7.66668 25C7.66668 25.7364 8.26363 26.3333 9 26.3333H25C25.7364 26.3333 26.3333 25.7364 26.3333 25V9Z" fill="#78C081"/>
<path d="M9.49993 23.3334C10.1443 23.3334 10.6666 23.8557 10.6666 24.5001C10.6666 25.1444 10.1443 25.6667 9.49993 25.6667C8.8556 25.6667 8.33325 25.1444 8.33325 24.5001C8.33325 23.8557 8.8556 23.3334 9.49993 23.3334ZM9.49993 25.0001C9.77606 25.0001 9.99993 24.7762 9.99993 24.5001C9.99993 24.2239 9.77606 24.0001 9.49993 24.0001C9.2238 24.0001 8.99993 24.2239 8.99993 24.5001C8.99993 24.7762 9.2238 25.0001 9.49993 25.0001Z" fill="#78C081"/>
<path d="M24.4999 25.6667C23.8556 25.6667 23.3333 25.1444 23.3333 24.5001C23.3333 23.8557 23.8556 23.3334 24.4999 23.3334C25.1443 23.3334 25.6666 23.8557 25.6666 24.5001C25.6666 24.8095 25.5437 25.1062 25.3249 25.325C25.1061 25.5438 24.8093 25.6667 24.4999 25.6667ZM24.4999 24.0001C24.2238 24.0001 23.9999 24.2239 23.9999 24.5001C23.9999 24.7762 24.2238 25.0001 24.4999 25.0001C24.7761 25.0001 24.9999 24.7762 24.9999 24.5001C24.9999 24.2239 24.7761 24.0001 24.4999 24.0001Z" fill="#78C081"/>
<path d="M9.49993 10.6667C8.8556 10.6667 8.33325 10.1444 8.33325 9.50007C8.33325 8.85573 8.8556 8.33339 9.49993 8.33339C10.1443 8.33339 10.6666 8.85573 10.6666 9.50007C10.6666 10.1444 10.1443 10.6667 9.49993 10.6667ZM9.49993 9.00007C9.2238 9.00007 8.99993 9.22394 8.99993 9.50007C8.99993 9.7762 9.2238 10.0001 9.49993 10.0001C9.77606 10.0001 9.99993 9.7762 9.99993 9.50007C9.99993 9.22394 9.77606 9.00007 9.49993 9.00007Z" fill="#78C081"/>
<path d="M24.4999 10.6667C23.8556 10.6667 23.3333 10.1444 23.3333 9.50007C23.3333 8.85573 23.8556 8.33339 24.4999 8.33339C25.1443 8.33339 25.6666 8.85573 25.6666 9.50007C25.6666 10.1444 25.1443 10.6667 24.4999 10.6667ZM24.4999 9.00007C24.2238 9.00007 23.9999 9.22394 23.9999 9.50007C23.9999 9.7762 24.2238 10.0001 24.4999 10.0001C24.7761 10.0001 24.9999 9.7762 24.9999 9.50007C24.9999 9.22394 24.7761 9.00007 24.4999 9.00007Z" fill="#78C081"/>
<path d="M24.6498 21.3431L24.0498 22.3431C23.9288 22.5434 23.7121 22.6661 23.4781 22.6667H10.5221C10.2881 22.666 10.0714 22.5433 9.95038 22.3431L9.35038 21.3431C9.22679 21.1371 9.22358 20.8806 9.3419 20.6716C9.46022 20.4626 9.68186 20.3334 9.92206 20.3334H24.0781C24.3183 20.3334 24.5399 20.4626 24.6582 20.6716C24.7766 20.8806 24.7733 21.1371 24.6498 21.3431ZM9.92206 21.0001L10.5221 22.0001H23.4781L24.0781 21.0001H9.92206Z" fill="#78C081"/>
<path d="M24.6498 18.3431L24.0498 19.3431C23.9288 19.5434 23.7121 19.6661 23.4781 19.6667H10.5221C10.2881 19.666 10.0714 19.5433 9.95038 19.3431L9.35038 18.3431C9.22679 18.1371 9.22358 17.8806 9.3419 17.6716C9.46022 17.4626 9.68186 17.3334 9.92206 17.3334H24.0781C24.3183 17.3334 24.5399 17.4626 24.6582 17.6716C24.7766 17.8806 24.7733 18.1371 24.6498 18.3431ZM9.92206 18.0001L10.5221 19.0001H23.4781L24.0781 18.0001H9.92206Z" fill="#78C081"/>
<path d="M24.6498 15.3431L24.0498 16.3431C23.9288 16.5434 23.7121 16.6661 23.4781 16.6667H10.5221C10.2881 16.666 10.0714 16.5433 9.95038 16.3431L9.35038 15.3431C9.22679 15.1371 9.22358 14.8806 9.3419 14.6716C9.46022 14.4626 9.68186 14.3334 9.92206 14.3334L24.0781 14.3334C24.3183 14.3334 24.5399 14.4626 24.6582 14.6716C24.7766 14.8806 24.7733 15.1371 24.6498 15.3431ZM9.92206 15.0001L10.5221 16.0001H23.4781L24.0781 15.0001L9.92206 15.0001Z" fill="#78C081"/>
<path d="M24.0494 13.3434C23.9284 13.5435 23.7119 13.666 23.4781 13.6667L10.5221 13.6667C10.2881 13.666 10.0714 13.5433 9.95038 13.3431L9.35038 12.3431C9.22679 12.1371 9.22358 11.8806 9.3419 11.6716C9.46022 11.4626 9.68186 11.3334 9.92206 11.3334L24.0781 11.3334C24.3183 11.3334 24.5399 11.4626 24.6582 11.6716C24.7766 11.8806 24.7733 12.1371 24.6498 12.3431L24.0494 13.3434ZM9.92206 12.0001L10.5221 13.0001L23.4781 13.0001L24.0781 12.0001L9.92206 12.0001Z" fill="#78C081"/>
</g>
<defs>
<clipPath id="clip0_1_1412">
<rect width="20" height="20" fill="white" transform="matrix(1 0 0 -1 7 27)"/>
</clipPath>
</defs>
</svg>
