<svg width="34" height="34" viewBox="0 0 34 34" fill="none" xmlns="http://www.w3.org/2000/svg">
<rect width="34" height="34" rx="10" fill="white"/>
<g clip-path="url(#clip0_1_1407)">
<path fill-rule="evenodd" clip-rule="evenodd" d="M21.3484 23.402C21.3315 23.402 21.3178 23.388 21.3178 23.3708V22.6792V22.3801C21.3178 22.2174 21.1905 22.0851 21.032 22.0812C21.0296 22.0812 21.0272 22.0812 21.0249 22.0812C21.0225 22.0812 21.0201 22.0812 21.0177 22.0812C20.8592 22.0851 20.7319 22.2174 20.7319 22.3801V22.6792V23.3708C20.7319 23.7184 21.008 24 21.3484 24H23.937C24.2775 24 24.5535 23.7183 24.5535 23.3708V22.6792V22.3801C24.5535 22.2174 24.4262 22.0851 24.2677 22.0812C24.2653 22.0812 24.2629 22.0812 24.2606 22.0812C24.2582 22.0812 24.2558 22.0812 24.2535 22.0812C24.0949 22.0851 23.9676 22.2174 23.9676 22.3801V22.6792V23.3708C23.9676 23.388 23.9539 23.402 23.937 23.402H21.3484Z" fill="#78C081"/>
<path fill-rule="evenodd" clip-rule="evenodd" d="M12.8055 15.9892C12.9199 16.106 13.1054 16.106 13.2198 15.9892L15.1367 14.0328C15.164 14.005 15.1885 13.9755 15.2102 13.9447C15.4204 13.6459 15.3667 13.2253 15.081 12.9891C15.0794 12.9877 15.0778 12.9864 15.0761 12.9851C14.4748 12.4965 13.739 12.1724 12.9343 12.0806C12.931 12.0802 12.9277 12.0799 12.9244 12.0795C12.5596 12.0435 12.2361 12.3042 12.1783 12.663C12.1723 12.7004 12.1692 12.7388 12.1692 12.778V15.545C12.1692 15.7101 12.3004 15.844 12.4622 15.844C12.624 15.844 12.7551 15.7101 12.7551 15.545V12.778C12.7551 12.7169 12.8074 12.6679 12.8693 12.6749C13.5609 12.7538 14.1934 13.0322 14.7112 13.4529C14.7624 13.4945 14.764 13.5675 14.7224 13.61L12.8055 15.5664C12.6911 15.6831 12.6911 15.8724 12.8055 15.9892Z" fill="#78C081"/>
<path fill-rule="evenodd" clip-rule="evenodd" d="M8.28896 15.8579C8.28619 15.8834 8.28479 15.9086 8.28468 15.9336C8.28319 16.2784 8.52896 16.5739 8.85983 16.6292C8.89638 16.6354 8.93396 16.6385 8.97237 16.6385H11.6836C11.8454 16.6385 11.9766 16.5047 11.9766 16.3395C11.9766 16.1744 11.8454 16.0406 11.6836 16.0406H8.97237C8.91259 16.0406 8.86448 15.9872 8.87131 15.924C8.94865 15.2182 9.22145 14.5726 9.63363 14.0443C9.67447 13.9919 9.74603 13.9904 9.78763 14.0328L11.7045 15.9892C11.819 16.1059 12.0044 16.1059 12.1189 15.9892C12.2333 15.8724 12.2333 15.6831 12.1189 15.5663L10.202 13.61C10.1674 13.5747 10.1302 13.544 10.0912 13.5179C9.86039 13.3638 9.56349 13.3696 9.33821 13.52C9.27785 13.5604 9.22264 13.6111 9.17521 13.6719C8.69651 14.2855 8.37891 15.0367 8.28896 15.8579Z" fill="#78C081"/>
<path fill-rule="evenodd" clip-rule="evenodd" d="M11.9903 20.5985C12.359 20.6403 12.6877 20.3782 12.746 20.0162C12.752 19.9788 12.7551 19.9404 12.7551 19.9011V17.1341C12.7551 16.969 12.624 16.8351 12.4622 16.8351C12.3004 16.8351 12.1692 16.969 12.1692 17.1341V19.9011C12.1692 19.9621 12.1169 20.0112 12.055 20.0042C11.3635 19.9253 10.7309 19.6469 10.2132 19.2262C10.1619 19.1846 10.1603 19.1115 10.2019 19.0691L12.1189 17.1127C12.2333 16.996 12.2333 16.8067 12.1189 16.6899C12.0044 16.5731 11.8189 16.5731 11.7045 16.6899L9.78762 18.6462C9.76032 18.6741 9.73586 18.7036 9.7142 18.7343C9.50278 19.0348 9.55827 19.4585 9.8482 19.694M11.9903 20.5985C11.1856 20.5067 10.4495 20.1826 9.8482 19.694L11.9903 20.5985Z" fill="#78C081"/>
<path fill-rule="evenodd" clip-rule="evenodd" d="M14.7224 19.0691C14.7497 19.0969 14.7786 19.1219 14.8088 19.144C15.1032 19.3597 15.5183 19.3031 15.7491 19.0073C16.2278 18.3936 16.5454 17.6425 16.6353 16.8214C16.6763 16.445 16.4195 16.1095 16.0648 16.0499C16.0282 16.0438 15.9905 16.0406 15.9519 16.0406H13.2407C13.0789 16.0406 12.9477 16.1744 12.9477 16.3395C12.9477 16.5047 13.0789 16.6385 13.2407 16.6385H15.9519C16.0118 16.6385 16.0599 16.6919 16.053 16.7551C15.9757 17.4608 15.7029 18.1064 15.2907 18.6348C15.2499 18.687 15.1784 18.6887 15.1367 18.6462L13.2198 16.6899C13.1054 16.5732 12.9199 16.5732 12.8055 16.6899C12.691 16.8067 12.691 16.996 12.8055 17.1128L14.7224 19.0691Z" fill="#78C081"/>
<path fill-rule="evenodd" clip-rule="evenodd" d="M11.3905 16.3395C11.3905 16.9435 11.8703 17.4332 12.4621 17.4332C13.054 17.4332 13.5338 16.9436 13.5338 16.3395C13.5338 15.7355 13.054 15.2458 12.4621 15.2458C11.8703 15.2458 11.3905 15.7355 11.3905 16.3395ZM12.4622 16.8351C12.194 16.8351 11.9766 16.6133 11.9766 16.3395C11.9766 16.0657 12.194 15.844 12.4622 15.844C12.7304 15.844 12.9477 16.0658 12.9477 16.3395C12.9477 16.6133 12.7304 16.8351 12.4622 16.8351Z" fill="#78C081"/>
<path fill-rule="evenodd" clip-rule="evenodd" d="M21.8706 15.9892C21.985 16.106 22.1705 16.106 22.285 15.9892L24.2019 14.0328C24.4957 13.733 24.4609 13.2447 24.1413 12.9851C23.54 12.4965 22.8041 12.1724 21.9994 12.0806C21.5926 12.0344 21.2344 12.3583 21.2344 12.778V15.545C21.2344 15.7101 21.3655 15.844 21.5273 15.844C21.6891 15.844 21.8203 15.7101 21.8203 15.545V12.778C21.8203 12.7169 21.8726 12.6679 21.9345 12.6749C22.6261 12.7538 23.2586 13.0322 23.7763 13.4529C23.8276 13.4945 23.8292 13.5675 23.7876 13.61L21.8706 15.5664C21.7562 15.6831 21.7562 15.8724 21.8706 15.9892Z" fill="#78C081"/>
<path fill-rule="evenodd" clip-rule="evenodd" d="M17.3541 15.8579C17.309 16.2731 17.6262 16.6385 18.0375 16.6385H20.7488C20.9106 16.6385 21.0418 16.5047 21.0418 16.3395C21.0418 16.1744 20.9106 16.0406 20.7488 16.0406H18.0375C17.9778 16.0406 17.9296 15.9872 17.9365 15.924C18.0138 15.2182 18.2866 14.5726 18.6988 14.0443C18.7396 13.9919 18.8112 13.9904 18.8528 14.0328L20.7697 15.9892C20.8841 16.1059 21.0696 16.1059 21.184 15.9892C21.2984 15.8724 21.2984 15.6831 21.184 15.5663L19.2671 13.61C18.9733 13.3102 18.4948 13.3457 18.2404 13.6719C17.7617 14.2855 17.4441 15.0367 17.3541 15.8579Z" fill="#78C081"/>
<path fill-rule="evenodd" clip-rule="evenodd" d="M21.0554 20.5985C21.4622 20.6446 21.8203 20.3208 21.8203 19.9011V17.1341C21.8203 16.969 21.6891 16.8351 21.5273 16.8351C21.3655 16.8351 21.2344 16.969 21.2344 17.1341V19.9011C21.2344 19.9621 21.1821 20.0112 21.1201 20.0042C20.4286 19.9253 19.7961 19.6469 19.2783 19.2262C19.227 19.1846 19.2255 19.1115 19.2671 19.0691L21.184 17.1127C21.2984 16.996 21.2984 16.8067 21.184 16.6899C21.0696 16.5731 20.8841 16.5731 20.7697 16.6899L18.8528 18.6462C18.559 18.946 18.5937 19.4344 18.9134 19.694M21.0554 20.5985C20.2508 20.5067 19.5147 20.1826 18.9134 19.694L21.0554 20.5985Z" fill="#78C081"/>
<path fill-rule="evenodd" clip-rule="evenodd" d="M23.7876 19.0691C24.0813 19.3688 24.5598 19.3335 24.8142 19.0073C25.293 18.3936 25.6106 17.6425 25.7005 16.8214C25.7457 16.4062 25.4284 16.0406 25.0171 16.0406H22.3059C22.1441 16.0406 22.0129 16.1744 22.0129 16.3395C22.0129 16.5047 22.1441 16.6385 22.3059 16.6385H25.0171C25.077 16.6385 25.1251 16.6919 25.1182 16.7551C25.0408 17.4608 24.7681 18.1064 24.3559 18.6348C24.3151 18.687 24.2435 18.6887 24.2019 18.6462L22.2849 16.6899C22.1705 16.5732 21.985 16.5732 21.8706 16.6899C21.7562 16.8067 21.7562 16.996 21.8706 17.1128L23.7876 19.0691Z" fill="#78C081"/>
<path fill-rule="evenodd" clip-rule="evenodd" d="M17.3279 16.3395C17.3279 18.7065 19.2081 20.6253 21.5273 20.6253C23.8467 20.6253 25.7268 18.7065 25.7268 16.3395C25.7268 13.9726 23.8467 12.0537 21.5273 12.0537C19.2081 12.0537 17.3279 13.9726 17.3279 16.3395ZM21.5273 20.0273C19.5317 20.0273 17.9138 18.3762 17.9138 16.3395C17.9138 14.3028 19.5317 12.6517 21.5273 12.6517C23.5231 12.6517 25.1408 14.3028 25.1408 16.3395C25.1408 18.3762 23.5231 20.0273 21.5273 20.0273Z" fill="#78C081"/>
<path fill-rule="evenodd" clip-rule="evenodd" d="M20.4557 16.3395C20.4557 16.9435 20.9355 17.4332 21.5273 17.4332C22.1192 17.4332 22.599 16.9435 22.599 16.3395C22.599 15.7355 22.1192 15.2458 21.5273 15.2458C20.9355 15.2458 20.4557 15.7355 20.4557 16.3395ZM21.5273 16.8351C21.2591 16.8351 21.0418 16.6133 21.0418 16.3395C21.0418 16.0657 21.2592 15.844 21.5273 15.844C21.7956 15.844 22.0129 16.0657 22.0129 16.3395C22.0129 16.6133 21.7956 16.8351 21.5273 16.8351Z" fill="#78C081"/>
<path fill-rule="evenodd" clip-rule="evenodd" d="M9.44649 23.3708C9.44649 23.7183 9.72256 24 10.063 24H12.6516C12.992 24 13.2681 23.7184 13.2681 23.3708V22.6792V22.3801C13.2681 22.2174 13.1408 22.0851 12.9823 22.0812C12.9799 22.0812 12.9775 22.0812 12.9752 22.0812C12.9728 22.0812 12.9704 22.0812 12.9681 22.0812C12.8095 22.0851 12.6822 22.2174 12.6822 22.3801V22.6792V23.3708C12.6822 23.388 12.6685 23.402 12.6516 23.402H10.063C10.0461 23.402 10.0324 23.388 10.0324 23.3708V22.6792V22.3801C10.0324 22.2174 9.90508 22.0851 9.74657 22.0812C9.7442 22.0812 9.74183 22.0812 9.73946 22.0812C9.73708 22.0812 9.73471 22.0812 9.73235 22.0812C9.57383 22.0851 9.44649 22.2174 9.44649 22.3801V22.6792V23.3708Z" fill="#78C081"/>
<path fill-rule="evenodd" clip-rule="evenodd" d="M15.7547 20.3263C15.7547 20.4915 15.8859 20.6253 16.0477 20.6253H17.9418C18.1036 20.6253 18.2347 20.4915 18.2347 20.3263C18.2347 20.1612 18.1036 20.0273 17.9418 20.0273H16.0477C15.8859 20.0273 15.7547 20.1612 15.7547 20.3263Z" fill="#78C081"/>
<path d="M20.7319 22.3801C20.7319 22.2174 20.8592 22.0851 21.0177 22.0812H15.3096H12.9823C13.1408 22.0851 13.2681 22.2174 13.2681 22.3801V22.6792H15.3096H20.7319V22.3801Z" fill="#78C081"/>
<path d="M12.6822 22.3801C12.6822 22.2174 12.8095 22.0851 12.9681 22.0812H9.74657C9.90508 22.0851 10.0324 22.2174 10.0324 22.3801V22.6792H12.6822V22.3801Z" fill="#78C081"/>
<path d="M21.3178 22.3801V22.6792H23.9676V22.3801C23.9676 22.2174 24.0949 22.0851 24.2535 22.0812H21.032C21.1905 22.0851 21.3178 22.2174 21.3178 22.3801Z" fill="#78C081"/>
<path d="M8.08203 22.0812C7.80838 22.0812 7.58594 21.8544 7.58594 21.5745L7.58594 11.1043C7.58594 10.8246 7.80819 10.598 8.08203 10.598L21.4323 10.598H25.918C26.1918 10.598 26.4141 10.8246 26.4141 11.1043V21.5745C26.4141 21.8544 26.1916 22.0812 25.918 22.0812H24.2677C24.4262 22.0851 24.5535 22.2174 24.5535 22.3801V22.6792H25.918C26.5154 22.6792 27 22.1845 27 21.5745V11.1043C27 10.4942 26.5152 10 25.918 10H21.4323L8.08203 10C7.48478 10 7 10.4942 7 11.1043L7 21.5745C7 22.1845 7.48459 22.6792 8.08203 22.6792H9.44649V22.3801C9.44649 22.2174 9.57383 22.0851 9.73235 22.0812H8.08203Z" fill="#78C081"/>
<path d="M12.1783 12.663C12.2361 12.3042 12.5596 12.0435 12.9244 12.0795C12.7726 12.0626 12.6183 12.0539 12.4621 12.0539C12.1229 12.0539 11.792 12.0949 11.4753 12.1731C10.5476 12.4479 9.84559 12.9368 9.33821 13.52C9.56349 13.3696 9.86039 13.3638 10.0912 13.5179C10.4895 13.1621 10.9925 12.8863 11.613 12.7543C11.796 12.7092 11.985 12.6783 12.1783 12.663Z" fill="#78C081"/>
<path d="M15.081 12.9891C15.3667 13.2253 15.4204 13.6459 15.2102 13.9447C15.6923 14.5203 16.0039 15.2493 16.0648 16.0499C16.4195 16.1095 16.6763 16.445 16.6353 16.8214C16.5454 17.6425 16.2278 18.3936 15.7491 19.0073C15.5183 19.3031 15.1032 19.3597 14.8088 19.144C14.2447 19.6361 13.5305 19.9539 12.746 20.0162C12.6877 20.3782 12.359 20.6403 11.9903 20.5985C11.1856 20.5067 10.4495 20.1826 9.8482 19.694C9.55827 19.4585 9.50278 19.0348 9.7142 18.7343C9.23222 18.1588 8.9208 17.4299 8.85983 16.6292C8.52896 16.5739 8.28319 16.2784 8.28468 15.9336C8.27005 16.072 8.2629 16.2077 8.2629 16.3394C8.2629 18.7067 10.1429 20.6253 12.4621 20.6253C14.7813 20.6253 16.6617 18.7067 16.6617 16.3394C16.6617 14.9833 16.0444 13.7743 15.081 12.9891Z" fill="#78C081"/>
</g>
<defs>
<clipPath id="clip0_1_1407">
<rect width="20" height="14" fill="white" transform="translate(7 10)"/>
</clipPath>
</defs>
</svg>
