<svg width="34" height="34" viewBox="0 0 34 34" fill="none" xmlns="http://www.w3.org/2000/svg">
<path d="M18.2723 16.5059C18.2747 15.5294 17.4851 14.7359 16.5087 14.7335C15.5323 14.7311 14.7388 15.5208 14.7364 16.4973L14.7364 16.5009C14.735 17.4774 15.5254 18.2702 16.5018 18.2716C17.4782 18.273 18.2709 17.4825 18.2723 16.5059Z" fill="white"/>
<path d="M21.219 16.512L21.219 16.5079C21.2229 13.9038 19.1152 11.7897 16.5114 11.7858C13.9076 11.7819 11.7937 13.8898 11.7898 16.4939C11.7745 17.7504 12.2736 18.9584 13.1713 19.8376C14.5174 21.1881 16.5448 21.5941 18.307 20.8659C20.0692 20.1377 21.2188 18.4189 21.219 16.512ZM13.5578 16.5032L13.5578 16.4973C13.5588 14.8664 14.8811 13.5449 16.5118 13.5451C18.1426 13.5453 19.4646 14.8671 19.4652 16.498C19.4659 18.1289 18.1449 19.4517 16.5142 19.4531C14.8834 19.4546 13.5601 18.1341 13.5578 16.5032Z" fill="white"/>
<path d="M12.3803 5.67696C13.1654 6.44533 13.8106 7.34454 14.2872 8.33433C14.7148 9.10058 14.9231 9.9698 14.8893 10.8467C16.9258 10.2583 19.1213 10.818 20.6276 12.3096C22.1895 10.6268 23.162 8.48165 23.3985 6.19779C23.5789 4.77351 23.0962 3.34518 22.0887 2.32252C21.3233 1.56137 20.4076 0.968205 19.4001 0.580781C17.6341 -0.21982 15.6013 -0.181831 13.8664 0.684341C13.7374 0.748018 13.6255 0.819423 13.5082 0.888381C9.90419 1.5733 6.64906 3.48664 4.2974 6.30252C4.15688 6.46322 4.11423 6.68744 4.18599 6.88854C4.25774 7.08964 4.43261 7.23623 4.64308 7.27166C4.85361 7.30717 5.06687 7.22599 5.20049 7.05955C6.98139 4.92819 9.32921 3.34468 11.9724 2.49214C11.9202 2.59015 11.8735 2.69086 11.8323 2.79395C11.3799 3.77327 11.6001 4.93193 12.3803 5.67696Z" fill="white"/>
<path d="M13.6056 32.4357C15.3723 33.2341 17.4048 33.1934 19.1381 32.3251C19.2731 32.2585 19.4009 32.1895 19.5229 32.1175C23.1158 31.4318 26.3608 29.5239 28.7072 26.7175C28.8456 26.5564 28.8867 26.3331 28.8145 26.1332C28.7424 25.9334 28.5682 25.7878 28.3587 25.7523C28.1492 25.7168 27.9369 25.7968 27.8029 25.9617C26.0278 28.0837 23.6889 29.6606 21.0563 30.5103C21.0992 30.4165 21.1404 30.3216 21.174 30.2232C21.6263 29.2446 21.4065 28.0867 20.6272 27.3419C19.8418 26.5728 19.1959 25.673 18.7186 24.6827C18.2914 23.9162 18.0824 23.0473 18.1141 22.1704C16.0758 22.7597 13.8783 22.1982 12.3723 20.7033C10.8136 22.3868 9.84259 24.5302 9.60492 26.8122C9.4259 28.2389 9.90879 29.6691 10.9159 30.6951C11.6813 31.4565 12.5975 32.0494 13.6056 32.4357Z" fill="white"/>
<path d="M32.3185 13.8733C32.2583 13.7499 32.1954 13.6321 32.1297 13.5197C31.4507 9.90704 29.5336 6.64409 26.7085 4.29264C26.547 4.15739 26.3257 4.11861 26.1279 4.19082C25.9302 4.26303 25.7858 4.43527 25.7495 4.64273C25.7131 4.85019 25.7901 5.06128 25.9516 5.19647C28.0816 6.9722 29.6645 9.3157 30.5162 11.955C30.4186 11.9081 30.3187 11.8662 30.2168 11.8296C29.2362 11.3832 28.0805 11.6056 27.3358 12.3841C26.5635 13.1657 25.6645 13.811 24.6769 14.2924C23.9102 14.7182 23.0418 14.9264 22.1654 14.8946C22.3173 15.4189 22.3955 15.9618 22.3976 16.5076L22.3976 16.5129C22.3969 18.0561 21.7884 19.5369 20.7038 20.6346C22.3867 22.1924 24.5276 23.1652 26.8079 23.4082C28.2342 23.5893 29.6646 23.1035 30.6857 22.0912C31.448 21.3278 32.0421 20.4133 32.4296 19.4064C33.2368 17.6413 33.1958 15.6046 32.3185 13.8733Z" fill="white"/>
<path d="M0.577477 13.6107C-0.220978 15.3776 -0.180092 17.4104 0.688632 19.1438C0.752947 19.2752 0.826022 19.3913 0.896779 19.5109C1.57376 23.1117 3.48278 26.3647 6.29623 28.7115C6.4573 28.8523 6.68201 28.8947 6.88328 28.8225C7.08462 28.7501 7.23093 28.5744 7.26559 28.3633C7.30025 28.1521 7.2178 27.9389 7.05015 27.8059C4.92147 26.0308 3.34296 23.6855 2.49972 21.0451C2.59379 21.0958 2.69062 21.1412 2.78971 21.1811C3.77028 21.628 4.92624 21.4058 5.67132 20.6272C6.44399 19.8483 7.34272 19.2057 8.32964 18.7266C9.09542 18.2998 9.96332 18.0907 10.8393 18.1221C10.6889 17.596 10.6121 17.0515 10.6112 16.5043L10.6112 16.4925C10.6134 14.951 11.2233 13.4725 12.3086 12.3779C10.6248 10.8203 8.48216 9.84939 6.20099 9.61022C4.77473 9.42872 3.34403 9.9118 2.31961 10.9207C1.55803 11.6863 0.964665 12.6025 0.577477 13.6107Z" fill="white"/>
</svg>
