<svg width="32" height="32" viewBox="0 0 32 32" fill="none" xmlns="http://www.w3.org/2000/svg">
<path d="M31.93 24.7942C31.8395 24.5214 31.2637 24.1197 30.2029 23.5899C29.9155 23.4228 29.5061 23.1959 28.9762 22.908C28.4459 22.6201 27.9646 22.3547 27.533 22.1123C27.1006 21.8699 26.6955 21.6351 26.317 21.4081C26.2565 21.3627 26.0672 21.2303 25.749 21.0101C25.4305 20.7906 25.1619 20.6276 24.9418 20.5213C24.7222 20.4157 24.5062 20.3625 24.294 20.3625C23.991 20.3625 23.6126 20.5786 23.1582 21.0101C22.7039 21.4422 22.2871 21.9115 21.9085 22.4195C21.5298 22.9273 21.1282 23.3967 20.7044 23.8285C20.28 24.2605 19.9312 24.4763 19.6588 24.4763C19.5221 24.4763 19.3516 24.4382 19.1472 24.3629C18.943 24.2872 18.7876 24.2224 18.6809 24.1701C18.5752 24.1167 18.3938 24.0109 18.1361 23.8513C17.8778 23.6922 17.7342 23.6051 17.704 23.5899C15.6283 22.4381 13.8482 21.1199 12.3632 19.6355C10.8787 18.1503 9.56033 16.3703 8.40888 14.2944C8.39375 14.2641 8.30643 14.1201 8.14746 13.8627C7.98826 13.605 7.88215 13.4234 7.82913 13.3171C7.77612 13.2111 7.71172 13.0557 7.6361 12.8512C7.56048 12.6467 7.52251 12.4764 7.52251 12.3399C7.52251 12.0673 7.73847 11.7187 8.17031 11.2944C8.60207 10.8703 9.07189 10.4687 9.57927 10.0902C10.0871 9.71165 10.5564 9.29485 10.9883 8.84048C11.4201 8.38587 11.636 8.00728 11.636 7.70432C11.636 7.49234 11.5829 7.27622 11.477 7.05659C11.371 6.83649 11.2081 6.56791 10.9883 6.24958C10.7685 5.93141 10.6359 5.7422 10.5904 5.6813C10.3634 5.30279 10.1288 4.89754 9.88606 4.46569C9.64335 4.03393 9.37844 3.55265 9.09043 3.02242C8.80267 2.49243 8.57557 2.08319 8.40872 1.79535C7.87873 0.734969 7.47729 0.158966 7.20449 0.0683785C7.09838 0.0229255 6.93918 0 6.72728 0C6.31796 0 5.78399 0.0756223 5.12496 0.227344C4.46569 0.378828 3.94693 0.537714 3.5681 0.70464C2.81052 1.02265 2.00757 1.94684 1.15901 3.47687C0.38631 4.9008 0 6.31016 0 7.70392C0 8.11268 0.0265076 8.51037 0.0795228 8.89708C0.132538 9.28339 0.227265 9.71905 0.363783 10.204C0.500062 10.6888 0.609993 11.0489 0.693098 11.2834C0.776282 11.5181 0.931587 11.9384 1.15893 12.5447C1.38596 13.1508 1.52248 13.5218 1.56793 13.6582C2.09816 15.1431 2.72694 16.4687 3.45411 17.6354C4.65053 19.5747 6.28326 21.5789 8.35133 23.6471C10.4195 25.7152 12.4232 27.3478 14.3627 28.5447C15.5292 29.2718 16.8553 29.9005 18.34 30.4311C18.4764 30.4763 18.8475 30.6125 19.4533 30.8404C20.0594 31.0675 20.4799 31.2228 20.7146 31.3062C20.9494 31.3896 21.3096 31.4996 21.7939 31.6361C22.2794 31.7727 22.7146 31.8674 23.1009 31.9208C23.4875 31.9731 23.8853 32.0001 24.2941 32.0001C25.6878 32.0001 27.0972 31.6135 28.5214 30.8409C30.0513 29.9927 30.9752 29.1896 31.2934 28.4314C31.4607 28.053 31.6192 27.5341 31.7707 26.8748C31.9226 26.2159 31.9981 25.682 31.9981 25.2727C31.9986 25.0599 31.9757 24.9011 31.93 24.7942Z" fill="#78C081"/>
</svg>
